<mxfile host="192.168.23.74" agent="Mozilla/5.0 (Windows NT 10.0; Win64; x64) AppleWebKit/537.36 (KHTML, like Gecko) Chrome/133.0.0.0 Safari/537.36" version="26.0.9">
  <diagram id="C5RBs43oDa-KdzZeNtuy" name="Page-1">
    <mxGraphModel dx="1434" dy="738" grid="1" gridSize="10" guides="1" tooltips="1" connect="1" arrows="1" fold="1" page="1" pageScale="1" pageWidth="827" pageHeight="1169" math="0" shadow="0">
      <root>
        <mxCell id="WIyWlLk6GJQsqaUBKTNV-0" />
        <mxCell id="WIyWlLk6GJQsqaUBKTNV-1" parent="WIyWlLk6GJQsqaUBKTNV-0" />
        <mxCell id="vHnyrmgprre1DJkYdZRr-4" value="" style="edgeStyle=orthogonalEdgeStyle;rounded=0;hachureGap=4;orthogonalLoop=1;jettySize=auto;html=1;fontFamily=Architects Daughter;fontSource=https%3A%2F%2Ffonts.googleapis.com%2Fcss%3Ffamily%3DArchitects%2BDaughter;" edge="1" parent="WIyWlLk6GJQsqaUBKTNV-1" source="_5GffySVghYjWB6TYijW-38" target="vHnyrmgprre1DJkYdZRr-3">
          <mxGeometry relative="1" as="geometry" />
        </mxCell>
        <mxCell id="vHnyrmgprre1DJkYdZRr-24" value="" style="edgeStyle=orthogonalEdgeStyle;rounded=0;sketch=1;hachureGap=4;jiggle=2;curveFitting=1;orthogonalLoop=1;jettySize=auto;html=1;fontFamily=Architects Daughter;fontSource=https%3A%2F%2Ffonts.googleapis.com%2Fcss%3Ffamily%3DArchitects%2BDaughter;" edge="1" parent="WIyWlLk6GJQsqaUBKTNV-1" source="_5GffySVghYjWB6TYijW-38" target="vHnyrmgprre1DJkYdZRr-21">
          <mxGeometry relative="1" as="geometry" />
        </mxCell>
        <mxCell id="_5GffySVghYjWB6TYijW-38" value="vCenter Colo A / B" style="whiteSpace=wrap;html=1;rounded=1;glass=0;strokeWidth=1;shadow=0;labelBackgroundColor=none;fillColor=#dae8fc;strokeColor=#6c8ebf;" parent="WIyWlLk6GJQsqaUBKTNV-1" vertex="1">
          <mxGeometry x="570" y="560" width="120" height="60" as="geometry" />
        </mxCell>
        <mxCell id="J6agBt9BV4gcUR58D80o-1" value="" style="edgeStyle=orthogonalEdgeStyle;rounded=1;orthogonalLoop=1;jettySize=auto;html=1;labelBackgroundColor=none;fontColor=default;" parent="WIyWlLk6GJQsqaUBKTNV-1" source="WIyWlLk6GJQsqaUBKTNV-3" target="J6agBt9BV4gcUR58D80o-0" edge="1">
          <mxGeometry relative="1" as="geometry" />
        </mxCell>
        <mxCell id="J6agBt9BV4gcUR58D80o-3" value="" style="edgeStyle=orthogonalEdgeStyle;rounded=1;orthogonalLoop=1;jettySize=auto;html=1;labelBackgroundColor=none;fontColor=default;" parent="WIyWlLk6GJQsqaUBKTNV-1" source="WIyWlLk6GJQsqaUBKTNV-3" target="J6agBt9BV4gcUR58D80o-2" edge="1">
          <mxGeometry relative="1" as="geometry" />
        </mxCell>
        <mxCell id="WIyWlLk6GJQsqaUBKTNV-3" value="WebUI Form (tfvars generator)" style="rounded=1;whiteSpace=wrap;html=1;fontSize=12;glass=0;strokeWidth=1;shadow=0;labelBackgroundColor=none;fillColor=#f8cecc;strokeColor=#b85450;" parent="WIyWlLk6GJQsqaUBKTNV-1" vertex="1">
          <mxGeometry x="160" y="40" width="200" height="40" as="geometry" />
        </mxCell>
        <mxCell id="J6agBt9BV4gcUR58D80o-0" value="To local storage as formatted .tfvars" style="rounded=1;whiteSpace=wrap;html=1;glass=0;strokeWidth=1;shadow=0;labelBackgroundColor=none;fillColor=#f8cecc;strokeColor=#b85450;" parent="WIyWlLk6GJQsqaUBKTNV-1" vertex="1">
          <mxGeometry x="275" y="140" width="120" height="60" as="geometry" />
        </mxCell>
        <mxCell id="J6agBt9BV4gcUR58D80o-6" value="" style="edgeStyle=orthogonalEdgeStyle;rounded=1;orthogonalLoop=1;jettySize=auto;html=1;labelBackgroundColor=none;fontColor=default;sketch=1;curveFitting=1;jiggle=2;" parent="WIyWlLk6GJQsqaUBKTNV-1" source="J6agBt9BV4gcUR58D80o-2" target="J6agBt9BV4gcUR58D80o-5" edge="1">
          <mxGeometry relative="1" as="geometry" />
        </mxCell>
        <mxCell id="J6agBt9BV4gcUR58D80o-2" value="To Azure Func for processing" style="rounded=1;whiteSpace=wrap;html=1;glass=0;strokeWidth=1;shadow=0;labelBackgroundColor=none;fillColor=#d5e8d4;strokeColor=#82b366;" parent="WIyWlLk6GJQsqaUBKTNV-1" vertex="1">
          <mxGeometry x="120" y="140" width="120" height="60" as="geometry" />
        </mxCell>
        <mxCell id="J6agBt9BV4gcUR58D80o-8" value="" style="edgeStyle=orthogonalEdgeStyle;rounded=1;orthogonalLoop=1;jettySize=auto;html=1;labelBackgroundColor=none;fontColor=default;" parent="WIyWlLk6GJQsqaUBKTNV-1" source="J6agBt9BV4gcUR58D80o-5" target="J6agBt9BV4gcUR58D80o-7" edge="1">
          <mxGeometry relative="1" as="geometry" />
        </mxCell>
        <mxCell id="J6agBt9BV4gcUR58D80o-5" value="Github Action Dispatch" style="rounded=1;whiteSpace=wrap;html=1;glass=0;strokeWidth=1;shadow=0;labelBackgroundColor=none;fillColor=#d5e8d4;strokeColor=#82b366;" parent="WIyWlLk6GJQsqaUBKTNV-1" vertex="1">
          <mxGeometry x="120" y="240" width="120" height="60" as="geometry" />
        </mxCell>
        <mxCell id="J6agBt9BV4gcUR58D80o-14" value="" style="edgeStyle=orthogonalEdgeStyle;rounded=1;orthogonalLoop=1;jettySize=auto;html=1;labelBackgroundColor=none;fontColor=default;" parent="WIyWlLk6GJQsqaUBKTNV-1" source="J6agBt9BV4gcUR58D80o-7" target="J6agBt9BV4gcUR58D80o-13" edge="1">
          <mxGeometry relative="1" as="geometry" />
        </mxCell>
        <mxCell id="J6agBt9BV4gcUR58D80o-7" value="Receives Payload&lt;br&gt;Creates new branch&lt;br&gt;Saves .tfvars&lt;br&gt;Creates Pull Request" style="rounded=1;whiteSpace=wrap;html=1;glass=0;strokeWidth=1;shadow=0;align=left;labelPosition=center;verticalLabelPosition=middle;verticalAlign=middle;labelBackgroundColor=none;fillColor=#d5e8d4;strokeColor=#82b366;" parent="WIyWlLk6GJQsqaUBKTNV-1" vertex="1">
          <mxGeometry x="120" y="340" width="120" height="70" as="geometry" />
        </mxCell>
        <mxCell id="J6agBt9BV4gcUR58D80o-16" value="" style="edgeStyle=orthogonalEdgeStyle;rounded=1;orthogonalLoop=1;jettySize=auto;html=1;labelBackgroundColor=none;fontColor=default;" parent="WIyWlLk6GJQsqaUBKTNV-1" source="J6agBt9BV4gcUR58D80o-13" target="J6agBt9BV4gcUR58D80o-15" edge="1">
          <mxGeometry relative="1" as="geometry" />
        </mxCell>
        <mxCell id="J6agBt9BV4gcUR58D80o-13" value="Pull Request Waits for Approval" style="ellipse;whiteSpace=wrap;html=1;align=center;rounded=1;glass=0;strokeWidth=1;shadow=0;labelBackgroundColor=none;fillColor=#f8cecc;strokeColor=#b85450;" parent="WIyWlLk6GJQsqaUBKTNV-1" vertex="1">
          <mxGeometry x="140" y="450" width="80" height="80" as="geometry" />
        </mxCell>
        <mxCell id="_5GffySVghYjWB6TYijW-37" value="" style="edgeStyle=orthogonalEdgeStyle;rounded=1;orthogonalLoop=1;jettySize=auto;html=1;" parent="WIyWlLk6GJQsqaUBKTNV-1" source="J6agBt9BV4gcUR58D80o-15" target="_5GffySVghYjWB6TYijW-34" edge="1">
          <mxGeometry relative="1" as="geometry" />
        </mxCell>
        <mxCell id="J6agBt9BV4gcUR58D80o-15" value="Merges Pull Request to Main branch" style="whiteSpace=wrap;html=1;rounded=1;glass=0;strokeWidth=1;shadow=0;labelBackgroundColor=none;fillColor=#dae8fc;strokeColor=#6c8ebf;" parent="WIyWlLk6GJQsqaUBKTNV-1" vertex="1">
          <mxGeometry x="120" y="560" width="120" height="60" as="geometry" />
        </mxCell>
        <mxCell id="_5GffySVghYjWB6TYijW-39" value="" style="edgeStyle=orthogonalEdgeStyle;rounded=1;orthogonalLoop=1;jettySize=auto;html=1;" parent="WIyWlLk6GJQsqaUBKTNV-1" source="_5GffySVghYjWB6TYijW-25" target="_5GffySVghYjWB6TYijW-38" edge="1">
          <mxGeometry relative="1" as="geometry" />
        </mxCell>
        <mxCell id="_5GffySVghYjWB6TYijW-25" value="Init/Plan/Apply" style="ellipse;whiteSpace=wrap;html=1;fillColor=#f8cecc;strokeColor=#b85450;rounded=1;" parent="WIyWlLk6GJQsqaUBKTNV-1" vertex="1">
          <mxGeometry x="440" y="550" width="80" height="80" as="geometry" />
        </mxCell>
        <mxCell id="_5GffySVghYjWB6TYijW-29" style="shape=image;editableCssRules=.*;image=data:image/svg+xml,PHN2ZyB2aWV3Qm94PSIwIDAgMjQgMjQiIHhtbG5zPSJodHRwOi8vd3d3LnczLm9yZy8yMDAwL3N2ZyI+PHN0eWxlPip7ZmlsbDojMjQ5NkVEfTwvc3R5bGU+PHBhdGggZD0iTTEzLjk4MyAxMS4wNzhoMi4xMTlhLjE4Ni4xODYgMCAwMC4xODYtLjE4NVY5LjAwNmEuMTg2LjE4NiAwIDAwLS4xODYtLjE4NmgtMi4xMTlhLjE4NS4xODUgMCAwMC0uMTg1LjE4NXYxLjg4OGMwIC4xMDIuMDgzLjE4NS4xODUuMTg1bS0yLjk1NC01LjQzaDIuMTE4YS4xODYuMTg2IDAgMDAuMTg2LS4xODZWMy41NzRhLjE4Ni4xODYgMCAwMC0uMTg2LS4xODVoLTIuMTE4YS4xODUuMTg1IDAgMDAtLjE4NS4xODV2MS44ODhjMCAuMTAyLjA4Mi4xODUuMTg1LjE4NW0wIDIuNzE2aDIuMTE4YS4xODcuMTg3IDAgMDAuMTg2LS4xODZWNi4yOWEuMTg2LjE4NiAwIDAwLS4xODYtLjE4NWgtMi4xMThhLjE4NS4xODUgMCAwMC0uMTg1LjE4NXYxLjg4N2MwIC4xMDIuMDgyLjE4NS4xODUuMTg2bS0yLjkzIDBoMi4xMmEuMTg2LjE4NiAwIDAwLjE4NC0uMTg2VjYuMjlhLjE4NS4xODUgMCAwMC0uMTg1LS4xODVIOC4xYS4xODUuMTg1IDAgMDAtLjE4NS4xODV2MS44ODdjMCAuMTAyLjA4My4xODUuMTg1LjE4Nm0tMi45NjQgMGgyLjExOWEuMTg2LjE4NiAwIDAwLjE4NS0uMTg2VjYuMjlhLjE4NS4xODUgMCAwMC0uMTg1LS4xODVINS4xMzZhLjE4Ni4xODYgMCAwMC0uMTg2LjE4NXYxLjg4N2MwIC4xMDIuMDg0LjE4NS4xODYuMTg2bTUuODkzIDIuNzE1aDIuMTE4YS4xODYuMTg2IDAgMDAuMTg2LS4xODVWOS4wMDZhLjE4Ni4xODYgMCAwMC0uMTg2LS4xODZoLTIuMTE4YS4xODUuMTg1IDAgMDAtLjE4NS4xODV2MS44ODhjMCAuMTAyLjA4Mi4xODUuMTg1LjE4NW0tMi45MyAwaDIuMTJhLjE4NS4xODUgMCAwMC4xODQtLjE4NVY5LjAwNmEuMTg1LjE4NSAwIDAwLS4xODQtLjE4NmgtMi4xMmEuMTg1LjE4NSAwIDAwLS4xODQuMTg1djEuODg4YzAgLjEwMi4wODMuMTg1LjE4NS4xODVtLTIuOTY0IDBoMi4xMTlhLjE4NS4xODUgMCAwMC4xODUtLjE4NVY5LjAwNmEuMTg1LjE4NSAwIDAwLS4xODQtLjE4NmgtMi4xMmEuMTg2LjE4NiAwIDAwLS4xODYuMTg2djEuODg3YzAgLjEwMi4wODQuMTg1LjE4Ni4xODVtLTIuOTIgMGgyLjEyYS4xODUuMTg1IDAgMDAuMTg0LS4xODVWOS4wMDZhLjE4NS4xODUgMCAwMC0uMTg0LS4xODZoLTIuMTJhLjE4NS4xODUgMCAwMC0uMTg0LjE4NXYxLjg4OGMwIC4xMDIuMDgyLjE4NS4xODUuMTg1TTIzLjc2MyA5Ljg5Yy0uMDY1LS4wNTEtLjY3Mi0uNTEtMS45NTQtLjUxLS4zMzguMDAxLS42NzYuMDMtMS4wMS4wODctLjI0OC0xLjctMS42NTMtMi41My0xLjcxNi0yLjU2NmwtLjM0NC0uMTk5LS4yMjYuMzI3Yy0uMjg0LjQzOC0uNDkuOTIyLS42MTIgMS40My0uMjMuOTctLjA5IDEuODgyLjQwMyAyLjY2MS0uNTk1LjMzMi0xLjU1LjQxMy0xLjc0NC40MkguNzUxYS43NTEuNzUxIDAgMDAtLjc1Ljc0OCAxMS4zNzYgMTEuMzc2IDAgMDAuNjkyIDQuMDYyYy41NDUgMS40MjggMS4zNTUgMi40OCAyLjQxIDMuMTI0IDEuMTguNzIzIDMuMSAxLjEzNyA1LjI3NSAxLjEzNy45ODMuMDAzIDEuOTYzLS4wODYgMi45My0uMjY2YTEyLjI0OCAxMi4yNDggMCAwMDMuODIzLTEuMzg5Yy45OC0uNTY3IDEuODYtMS4yODggMi42MS0yLjEzNiAxLjI1Mi0xLjQxOCAxLjk5OC0yLjk5NyAyLjU1My00LjRoLjIyMWMxLjM3MiAwIDIuMjE1LS41NDkgMi42OC0xLjAwOS4zMDktLjI5My41NS0uNjUuNzA3LTEuMDQ2bC4wOTgtLjI4OFoiLz48L3N2Zz4=;rounded=1;" parent="WIyWlLk6GJQsqaUBKTNV-1" vertex="1">
          <mxGeometry x="140" y="45" width="20" height="30" as="geometry" />
        </mxCell>
        <mxCell id="_5GffySVghYjWB6TYijW-30" style="shape=image;editableCssRules=.*;image=data:image/svg+xml,PHN2ZyB2aWV3Qm94PSIwIDAgMjQgMjQiIHhtbG5zPSJodHRwOi8vd3d3LnczLm9yZy8yMDAwL3N2ZyI+PHN0eWxlPip7ZmlsbDojMTgxNzE3fTwvc3R5bGU+PHBhdGggZD0iTTEyIC4yOTdjLTYuNjMgMC0xMiA1LjM3My0xMiAxMiAwIDUuMzAzIDMuNDM4IDkuOCA4LjIwNSAxMS4zODUuNi4xMTMuODItLjI1OC44Mi0uNTc3IDAtLjI4NS0uMDEtMS4wNC0uMDE1LTIuMDQtMy4zMzguNzI0LTQuMDQyLTEuNjEtNC4wNDItMS42MUM0LjQyMiAxOC4wNyAzLjYzMyAxNy43IDMuNjMzIDE3LjdjLTEuMDg3LS43NDQuMDg0LS43MjkuMDg0LS43MjkgMS4yMDUuMDg0IDEuODM4IDEuMjM2IDEuODM4IDEuMjM2IDEuMDcgMS44MzUgMi44MDkgMS4zMDUgMy40OTUuOTk4LjEwOC0uNzc2LjQxNy0xLjMwNS43Ni0xLjYwNS0yLjY2NS0uMy01LjQ2Ni0xLjMzMi01LjQ2Ni01LjkzIDAtMS4zMS40NjUtMi4zOCAxLjIzNS0zLjIyLS4xMzUtLjMwMy0uNTQtMS41MjMuMTA1LTMuMTc2IDAgMCAxLjAwNS0uMzIyIDMuMyAxLjIzLjk2LS4yNjcgMS45OC0uMzk5IDMtLjQwNSAxLjAyLjAwNiAyLjA0LjEzOCAzIC40MDUgMi4yOC0xLjU1MiAzLjI4NS0xLjIzIDMuMjg1LTEuMjMuNjQ1IDEuNjUzLjI0IDIuODczLjEyIDMuMTc2Ljc2NS44NCAxLjIzIDEuOTEgMS4yMyAzLjIyIDAgNC42MS0yLjgwNSA1LjYyNS01LjQ3NSA1LjkyLjQyLjM2LjgxIDEuMDk2LjgxIDIuMjIgMCAxLjYwNi0uMDE1IDIuODk2LS4wMTUgMy4yODYgMCAuMzE1LjIxLjY5LjgyNS41N0MyMC41NjUgMjIuMDkyIDI0IDE3LjU5MiAyNCAxMi4yOTdjMC02LjYyNy01LjM3My0xMi0xMi0xMiIvPjwvc3ZnPg==;rounded=1;" parent="WIyWlLk6GJQsqaUBKTNV-1" vertex="1">
          <mxGeometry x="99" y="255" width="20" height="30" as="geometry" />
        </mxCell>
        <mxCell id="_5GffySVghYjWB6TYijW-36" value="" style="edgeStyle=orthogonalEdgeStyle;rounded=1;orthogonalLoop=1;jettySize=auto;html=1;" parent="WIyWlLk6GJQsqaUBKTNV-1" source="_5GffySVghYjWB6TYijW-34" target="_5GffySVghYjWB6TYijW-25" edge="1">
          <mxGeometry relative="1" as="geometry" />
        </mxCell>
        <mxCell id="_5GffySVghYjWB6TYijW-34" value="Terraform Pipeline" style="whiteSpace=wrap;html=1;rounded=1;glass=0;strokeWidth=1;shadow=0;labelBackgroundColor=none;fillColor=#d5e8d4;strokeColor=#82b366;" parent="WIyWlLk6GJQsqaUBKTNV-1" vertex="1">
          <mxGeometry x="280" y="560" width="120" height="60" as="geometry" />
        </mxCell>
        <mxCell id="_5GffySVghYjWB6TYijW-21" value="" style="shape=image;editableCssRules=.*;image=data:image/svg+xml,PHN2ZyB4bWxucz0iaHR0cDovL3d3dy53My5vcmcvMjAwMC9zdmciIHZpZXdCb3g9IjAgMCAyNCAyNCI+PHN0eWxlPiogeyBmaWxsOiBsaWdodC1kYXJrKHJnYigwLCAwLCAwKSwgcmdiKDYyLCA0MCwgMCkpOyB9IDwvc3R5bGU+PHBhdGggZD0iTTIuODcyIDI0aC0uOTc1YTMuODY2IDMuODY2IDAgMDEtLjA3LS4xOTdjLS4yMTUtLjY2Ni0uNTk0LTEuNDktLjY5Mi0yLjE1NC0uMTQ2LS45ODQuNzgtMS4wMzkgMS4zNzQtMS40NjUuOTE1LS42NiAxLjYzNS0xLjAyNSAyLjYyNy0xLjYyLjI5NS0uMTc5IDEuMTgyLS42MjQgMS4yODEtLjgyOS4yMDEtLjQwOC0uMzQ1LS45ODItLjQ5LTEuMy0uMjI1LS41MDctLjM0NS0uOTM3LS4zNzYtMS40MzUtLjgyNC0uMTMtMS40NTUtLjYyNy0xLjg0NC0xLjE4NS0uNjMtLjkyNS0xLjA2Ni0yLjYzNS0uNTI1LTMuOTM2LjA0NS0uMTAzLjI1NC0uMzA1LjI4NS0uNDYzLjA2LS4zMDgtLjEwNS0uNzItLjEyLTEuMDQ4LS4wNi0xLjY5Mi4yODQtMy4xNSAxLjQyNS0zLjY2LjQ2My0xLjg0IDIuMTEzLTIuNDUzIDMuNjczLTMuMzY3LjU4LS4zNDIgMS4yMjQtLjU2MiAxLjg5LS44MDcgMi4zNzItLjg3NyA2LjAyNy0uNzEyIDcuOTk0Ljc4My44MzYuNjMzIDIuMTc2IDEuOTcgMi42NTYgMi45MzkgMS4yNjIgMi41NTUgMS4xNyA2LjgyNS4yODcgOS45MzQtLjEyLjQyMS0uMjkgMS4wMzItLjUzMyAxLjUzMy0uMTY4LjM1LS42ODkgMS4wNS0uNjI1IDEuMzYuMDY0LjMxNCAxLjE5IDEuMTcgMS40MzIgMS4zOTUuNDM0LjQyMiAxLjI2Ljk3NSAxLjMyNCAxLjUuMDcuNTU3LS4yNDggMS4zMzYtLjQxIDEuODc1LS4yMTcuNzIxLS40MzYgMS40NDEtLjY1NCAyLjEzMUgyLjg3em0xMS4xMDQtMy41NGMtLjU0NS0uMy0xLjM2MS0uNjIyLTIuMDY1LS43NTctLjg3LS4xNjQtLjc4IDEuMTg4LS43NSAxLjk5NC4wMy42NDMuMzYgMS4zMTYuNTEgMS43NDQuMDc2LjE5Ny4wOS40MS4yNTYuNDQ5LjMuMDY4IDEuMjktLjMyNiAxLjU3NS0uNDc5LjYtLjMyOCAxLjA2NC0uODQ0IDEuNTc0LTEuMTg5LjAxNi0uMTcuMDE2LS4zNC4wMy0uNTA4YTIuNjQ4IDIuNjQ4IDAgMDAtMS4wOTUtLjI3N2MuMzE0LS4xNS43NS0uMTUgMS4wMzUtLjMzMmwuMDE2LS4xOTNjLS40OTYtLjAzLS42OS0uMjU0LTEuMDIxLS40MzZ6bTcuNDU0IDIuOTM1YTE3Ljc4IDE3Ljc4IDAgMDAuNDY1LTEuNzUyYy4wNi0uMjg3LjIxNS0uOTE4LjE3OC0xLjE3Ni0uMDU5LS40NTktLjY4NC0uNzk5LTEuMDA0LTEuMDg2LS41ODQtLjUyNS0uOTUtLjk3NS0xLjU2LTEuNDY5LS4yNDkuMzc1LS43OC42MTUtLjk4My45MTQgMS40NDctLjY4OSAxLjcxIDIuNjI1IDEuMTQxIDMuNjkuMDkuMzI5LjM5MS40NS41MTQuNzM1bC0uMDg2LjE2NmgxLjI5Yy4wMTMgMCAuMDMgMCAuMDQ0LjAxNHptLTYuNjM0LS4wMTJjLS4wNS0uMDc0LS4xLS4xMzUtLjE1LS4yMDlsLS4zMDEuMTk1aC40NXptMi43NyAwYy4wMDgtLjIwOS4wMTgtLjQwNC4wMy0uNTk4LS41My4wMjktLjgyNS0uNDgtMS4xOTYtLjUyNy0uMzI0LS4wNDUtLjYuMzYxLTEuMDIuMTk1LS4wOTUuMTA1LS4xODMuMjI3LS4yODQuMzE2LjE1NC4xOC4yOTUuMzc1LjQyNC41ODRoLjgxNWMuMDE0LS4xNjQuMTM1LS4yODUuMy0uMjg1LjE2NSAwIC4yODQuMTIxLjI4NC4yN2guNjZ6bTIuMTE2IDBjLS4zMTQtLjQ3OS0uOTQ3LS44OTgtMS42OC0uNTU1bC0uMDMuNTQxaDEuNzF6bS04LjUxIDBsLS4xMDQtLjM0NGMtLjIyNS0uNzItLjM2LTEuMjYtLjQwNS0xLjY4LS45MTQtLjQzNi0xLjg3NS0uODctMi42NTQtMS40MjYtLjE1LS4xMDUtMS4xMDktMS4zNS0xLjIzLTEuMzA1LTEuNzM5LjY3Ni0zLjM1OSAxLjg2LTQuODE0IDIuOTg0LjI1Ni41NTcuNDggMS4xNDEuNjkgMS43NGg4LjUwNXptOC4yNjUtMi4xMTNjLS4wMjktLjUxMi0uMTY0LTEuNTYtLjQ4LTEuNzQtLjY2LS4zOS0xLjg0Ni43OC0yLjM0Ljk0My4wNDUuMTUuMTM1LjI3MS4xNS40OC4yODUtLjA3NC42NDUtLjAyOS44OTguMDkyLS4yOTkuMDMtLjYyOS4wMy0uODI0LjE2NC0uMDc0LjE5NS4wMTYuNDgtLjAyOS43NjQuNjkuMTk3IDEuNS4zMDMgMi4zODUuMzMyLjE2NC0uMjI3LjIyNS0uNjQ1LjIxMS0xLjA4MnptLTQuMDgtLjM2Yy0uMDQ0LjM3NS4wNDYuNTEuMTIuOTQzIDEuMjYuMzkxIDEuMDM0LTEuNzQtLjEzNS0uOTU5ek04Ljc2IDE5LjVjLS40NS40NTcgMS4yNyAxLjA4MiAxLjgxNCAxLjExNSAwLS4yOS4xNjUtLjU2NC4xMzUtLjc3LS42NS0uMTE4LTEuNTAyLS4wNDItMS45NDUtLjM0N3ptNS41NjUuMjE1YzAgLjA0My0uMDYxLjAzLS4wNjguMDY0LjU4LjQ1MSAxLjAxNC41NDUgMS44MDIuNTEuMzU0LS4yNjIuNjctLjU2MyAxLjA0My0uODA3LS44NTUuMDc0LTEuOTMxLjYwNy0yLjc3NC4yM3ptMy40Mi0xNy43MjZjLTEuNjA2LS45MDYtNC4zNS0xLjU5MS02LjA3Ni0uNzMxLTEuMzguNjkyLTMuMjcgMS44NC0zLjg5OSAzLjI5Mi42IDEuNDAyLS4xNjYgMi42ODYtLjIyNiA0LjEwOS0uMDE4Ljc1Ny4zNiAxLjQyLjM5MSAyLjI0Mi0uMi4zMzgtLjgyNS4zOC0xLjI2LjM1Ni0uMTQ2LS43MjktLjQtMS41NDktMS4xNTUtMS42My0xLjA2NC0uMTE2LTEuODQ1Ljc2NC0xLjg5IDEuNjgzLS4wNiAxLjA4LjgzMyAyLjg2NCAyLjA4NSAyLjc0NS40ODgtLjA0Ni42MDgtLjU0IDEuMTM5LS41NC4yODUuNTctLjQ0NS43NS0uNTIzIDEuMTU0LS4wMTYuMTA1LjA2LjUxMS4xMDQuNzA1LjIzMy45NDQuNzQ0IDIuMTYgMS4yNDUgMi44OC42MzUuOSAxLjg4NCAxLjA1MSAzLjIyOSAxLjE0MS4yNC0uNTI1IDEuMTI1LS40OCAxLjcwNi0uMzQ2LS42OTEtLjI3LTEuMzM2LS45NDUtMS44NzUtMS41MjktLjYxNS0uNjc2LTEuMjMtMS40MS0xLjI2MS0yLjI4IDEuMTU1IDEuNjA0IDIuMSAzIDQuMiAzLjcwNCAxLjU5LjUyNSAzLjQ1LS4yNTQgNC42NjQtMS4xMDkuNTEtLjM1OS44MTEtLjkzIDEuMTctMS40MzkgMS4zNS0xLjkzNiAxLjk4LTQuNzEgMS44NDYtNy4zOTQtLjA2LTEuMTExLS4wNi0yLjIyMS0uNDM2LTIuOTU1LS4zODktLjc4MS0xLjY5NS0xLjQ3MS0yLjQ3NS0uNzgxLS4xNS0uNzY0LjYzLTEuMjMgMS41NDUtLjk2LS42Ni0uODU0LTEuMzM2LTEuODU4LTIuMjY2LTIuMzg0ek0xMy41OCAxNC44OTZjLjYxNSAxLjU0NCAyLjcyNCAxLjM2MyA0LjUwNSAxLjMyMy0uMDg0LjE5NC0uMjU2LjQzNS0uNDY1LjUxNS0uNTcuMjMyLTIuMTQ1LjQwOC0yLjkzNy0uMDEyLS41MDYtLjI3LS44MjQtLjg3My0xLjEwMi0xLjIyNy0uMTM3LS4xNzItLjc5NS0uNjA4LS4wMTItLjYwOXptLjE2NC0uODdjLjg5My40NjQgMi41Mi41MTcgMy43MzEuNDguMDY2LjI2Ny4wNjYuNTkzLjA2OC45MTMtMS41NS4wOC0zLjM4Ni0uMzA0LTMuNzk0LTEuMzk1aC0uMDA1em02LjY3NS0uNTg2Yy0uNDczLjktMS4xNDUgMS44OTctMi41MzkgMS45MjgtLjAyMy0uMjg0LS4wNDUtLjczNSAwLS45MDQgMS4wNjQtLjEwMyAxLjcyNy0uNjQ2IDIuNTQzLTEuMDE3em0tLjY0OS0uNjY3Yy0xLjAyLjY2LTIuMTU0IDEuMzc1LTMuODI0IDEuMjEtLjM1MS0uMzEtLjQ4NS0xLS4xNC0xLjQ1OC4xODEuMzEzLjA2Ljg4NS41Ny45Ny45NDQuMTY1IDIuMDM4LS41NzkgMi43My0uODQuNDItLjcxMy0uMDQ2LS45NzYtLjQyLTEuNDMzLS43ODItLjkzLTEuODMtMi4xLTEuODAyLTMuNTEuMzE0LS4yMjQuMzQ2LjM0Ni4zOTEuNDUuNDA0Ljk2IDEuNDI0IDIuMTc1IDIuMTc0IDMgLjE4LjIxLjQ4LjM5LjUxLjUyNC4wOTIuMzktLjI1NC44NTQtLjIwOSAxLjExem0tMTMuNDM5LS42NzVjLS4zMTQtLjE4NC0uMzkzLS45OS0uNzY4LTEuMDEtLjUzNS0uMDMtLjQzOCAxLjA1LS40MzYgMS42OC0uMzctLjMzLS40MzUtMS4zNjUtLjE2NC0xLjg5LS4zMDgtLjE1LS40NDUuMTY0LS42MTguMjg0LjIyLTEuNTkgMi4zNC0uNzM0IDEuOTkuOTZ6TTQuNzEzIDUuOTk1Yy0uNjg1Ljc1Ni0uNTQgMi4xNzQtLjQ1OSAzLjE4OCAxLjI0NC0uNzg1IDIuODk4LjA2IDIuODgzIDEuMzk0LjU5NS0uMDE2LjIyMy0uNzQ0LjExNS0xLjIxNS0uMzUzLTEuNTI4LjU5Mi0zLjE4Ny4wNDEtNC41OS0xLjA2NC4wODQtMS45MzkuNTItMi41NzggMS4yMTV6bTkuMTIgMS4xMTNjLjMwNy41NjIuNDA0IDEuMTQ4Ljg0IDEuNTcuMTk1LjE5LjU3NC40MjQuMzg3Ljk1LS4wNDUuMTIxLS4zNjUuMzkxLS41NTEuNDUtLjY3NC4xOTUtMi4yNTQuMDMtMS43MjEtLjgxLjU2My4wMTUgMS4zMTQuMzYgMS43MzItLjA0NS0uMzE0LS41MjQtLjg4NS0xLjUzLS42NzQtMi4xM3ptNi4xOTgtLjAxM2guMDY4Yy4zMy42NjguNiAxLjM3NSAxLjAwNCAxLjk2NS0uMjcuNjI4LTIuMDUzIDEuMTktMi4wMjMuMDU3LjM5LS4xNyAxLjA1LS4wMzUgMS4zOTUtLjI1LS4xOTMtLjU1Ni0uNDgtMS4wMDYtLjQzNC0xLjc3MXptLTYuOTI3LTEuNjE3Yy0xLjQyMi0uMzMtMi4xMzEuNTkyLTIuNTYgMS41NTMtLjM4NC0uMDk0LS4yMzEtLjYxNS0uMTM1LS44ODMuMjU1LS43MDEgMS4yOC0xLjYzMyAyLjExOS0xLjUwNi4zNTkuMDU3Ljg0OC4zODYuNTc2LjgzNHpNOS42NDIgMS41OTNjLTEuNTYuNDQtMy41NiAxLjU3NC00LjIgMi45NzQuNDk1LS4wNy44NC0uMzIxIDEuMzMtLjM1MS4xODYtLjAxNi40MjguMDc0LjY0MS4wMTUuNDI0LS4xMDQuNzgtMS4wNjUgMS4xMDItMS40MS4zMS0uMzQ1LjY4NS0uNDk2Ljk0LS44MS4xNjctLjA5LjQwOS0uMDc0LjQyLS4zMy0uMDczLS4wNzUtLjE1LS4xMzUtLjIzMi0uMTA1di4wMTd6Ii8+PC9zdmc+;verticalAlign=top;rounded=1;" parent="WIyWlLk6GJQsqaUBKTNV-1" vertex="1">
          <mxGeometry x="320" y="530" width="30" height="30" as="geometry" />
        </mxCell>
        <mxCell id="_5GffySVghYjWB6TYijW-41" style="shape=image;editableCssRules=.*;image=data:image/svg+xml,PHN2ZyB2aWV3Qm94PSIwIDAgMjQgMjQiIHhtbG5zPSJodHRwOi8vd3d3LnczLm9yZy8yMDAwL3N2ZyI+PHN0eWxlPip7ZmlsbDojMjQ5NkVEfTwvc3R5bGU+PHBhdGggZD0iTTEzLjk4MyAxMS4wNzhoMi4xMTlhLjE4Ni4xODYgMCAwMC4xODYtLjE4NVY5LjAwNmEuMTg2LjE4NiAwIDAwLS4xODYtLjE4NmgtMi4xMTlhLjE4NS4xODUgMCAwMC0uMTg1LjE4NXYxLjg4OGMwIC4xMDIuMDgzLjE4NS4xODUuMTg1bS0yLjk1NC01LjQzaDIuMTE4YS4xODYuMTg2IDAgMDAuMTg2LS4xODZWMy41NzRhLjE4Ni4xODYgMCAwMC0uMTg2LS4xODVoLTIuMTE4YS4xODUuMTg1IDAgMDAtLjE4NS4xODV2MS44ODhjMCAuMTAyLjA4Mi4xODUuMTg1LjE4NW0wIDIuNzE2aDIuMTE4YS4xODcuMTg3IDAgMDAuMTg2LS4xODZWNi4yOWEuMTg2LjE4NiAwIDAwLS4xODYtLjE4NWgtMi4xMThhLjE4NS4xODUgMCAwMC0uMTg1LjE4NXYxLjg4N2MwIC4xMDIuMDgyLjE4NS4xODUuMTg2bS0yLjkzIDBoMi4xMmEuMTg2LjE4NiAwIDAwLjE4NC0uMTg2VjYuMjlhLjE4NS4xODUgMCAwMC0uMTg1LS4xODVIOC4xYS4xODUuMTg1IDAgMDAtLjE4NS4xODV2MS44ODdjMCAuMTAyLjA4My4xODUuMTg1LjE4Nm0tMi45NjQgMGgyLjExOWEuMTg2LjE4NiAwIDAwLjE4NS0uMTg2VjYuMjlhLjE4NS4xODUgMCAwMC0uMTg1LS4xODVINS4xMzZhLjE4Ni4xODYgMCAwMC0uMTg2LjE4NXYxLjg4N2MwIC4xMDIuMDg0LjE4NS4xODYuMTg2bTUuODkzIDIuNzE1aDIuMTE4YS4xODYuMTg2IDAgMDAuMTg2LS4xODVWOS4wMDZhLjE4Ni4xODYgMCAwMC0uMTg2LS4xODZoLTIuMTE4YS4xODUuMTg1IDAgMDAtLjE4NS4xODV2MS44ODhjMCAuMTAyLjA4Mi4xODUuMTg1LjE4NW0tMi45MyAwaDIuMTJhLjE4NS4xODUgMCAwMC4xODQtLjE4NVY5LjAwNmEuMTg1LjE4NSAwIDAwLS4xODQtLjE4NmgtMi4xMmEuMTg1LjE4NSAwIDAwLS4xODQuMTg1djEuODg4YzAgLjEwMi4wODMuMTg1LjE4NS4xODVtLTIuOTY0IDBoMi4xMTlhLjE4NS4xODUgMCAwMC4xODUtLjE4NVY5LjAwNmEuMTg1LjE4NSAwIDAwLS4xODQtLjE4NmgtMi4xMmEuMTg2LjE4NiAwIDAwLS4xODYuMTg2djEuODg3YzAgLjEwMi4wODQuMTg1LjE4Ni4xODVtLTIuOTIgMGgyLjEyYS4xODUuMTg1IDAgMDAuMTg0LS4xODVWOS4wMDZhLjE4NS4xODUgMCAwMC0uMTg0LS4xODZoLTIuMTJhLjE4NS4xODUgMCAwMC0uMTg0LjE4NXYxLjg4OGMwIC4xMDIuMDgyLjE4NS4xODUuMTg1TTIzLjc2MyA5Ljg5Yy0uMDY1LS4wNTEtLjY3Mi0uNTEtMS45NTQtLjUxLS4zMzguMDAxLS42NzYuMDMtMS4wMS4wODctLjI0OC0xLjctMS42NTMtMi41My0xLjcxNi0yLjU2NmwtLjM0NC0uMTk5LS4yMjYuMzI3Yy0uMjg0LjQzOC0uNDkuOTIyLS42MTIgMS40My0uMjMuOTctLjA5IDEuODgyLjQwMyAyLjY2MS0uNTk1LjMzMi0xLjU1LjQxMy0xLjc0NC40MkguNzUxYS43NTEuNzUxIDAgMDAtLjc1Ljc0OCAxMS4zNzYgMTEuMzc2IDAgMDAuNjkyIDQuMDYyYy41NDUgMS40MjggMS4zNTUgMi40OCAyLjQxIDMuMTI0IDEuMTguNzIzIDMuMSAxLjEzNyA1LjI3NSAxLjEzNy45ODMuMDAzIDEuOTYzLS4wODYgMi45My0uMjY2YTEyLjI0OCAxMi4yNDggMCAwMDMuODIzLTEuMzg5Yy45OC0uNTY3IDEuODYtMS4yODggMi42MS0yLjEzNiAxLjI1Mi0xLjQxOCAxLjk5OC0yLjk5NyAyLjU1My00LjRoLjIyMWMxLjM3MiAwIDIuMjE1LS41NDkgMi42OC0xLjAwOS4zMDktLjI5My41NS0uNjUuNzA3LTEuMDQ2bC4wOTgtLjI4OFoiLz48L3N2Zz4=;rounded=1;" parent="WIyWlLk6GJQsqaUBKTNV-1" vertex="1">
          <mxGeometry x="100" y="155" width="20" height="30" as="geometry" />
        </mxCell>
        <mxCell id="vHnyrmgprre1DJkYdZRr-14" value="" style="edgeStyle=orthogonalEdgeStyle;rounded=0;hachureGap=4;orthogonalLoop=1;jettySize=auto;html=1;fontFamily=Architects Daughter;fontSource=https%3A%2F%2Ffonts.googleapis.com%2Fcss%3Ffamily%3DArchitects%2BDaughter;" edge="1" parent="WIyWlLk6GJQsqaUBKTNV-1" source="vHnyrmgprre1DJkYdZRr-0" target="vHnyrmgprre1DJkYdZRr-3">
          <mxGeometry relative="1" as="geometry" />
        </mxCell>
        <mxCell id="vHnyrmgprre1DJkYdZRr-0" value="Github Action" style="whiteSpace=wrap;html=1;fillColor=#d5e8d4;strokeColor=#82b366;rounded=1;" vertex="1" parent="WIyWlLk6GJQsqaUBKTNV-1">
          <mxGeometry x="420" y="727.5" width="120" height="30" as="geometry" />
        </mxCell>
        <mxCell id="vHnyrmgprre1DJkYdZRr-17" value="" style="edgeStyle=orthogonalEdgeStyle;rounded=0;hachureGap=4;orthogonalLoop=1;jettySize=auto;html=1;fontFamily=Architects Daughter;fontSource=https%3A%2F%2Ffonts.googleapis.com%2Fcss%3Ffamily%3DArchitects%2BDaughter;entryX=0.58;entryY=1.022;entryDx=0;entryDy=0;entryPerimeter=0;" edge="1" parent="WIyWlLk6GJQsqaUBKTNV-1" source="vHnyrmgprre1DJkYdZRr-3" target="vHnyrmgprre1DJkYdZRr-21">
          <mxGeometry relative="1" as="geometry">
            <mxPoint x="775" y="612.5" as="targetPoint" />
          </mxGeometry>
        </mxCell>
        <mxCell id="vHnyrmgprre1DJkYdZRr-3" value="Github Runner" style="aspect=fixed;pointerEvents=1;shadow=0;dashed=0;html=1;strokeColor=none;labelPosition=center;verticalLabelPosition=bottom;verticalAlign=top;align=center;fillColor=#00188D;shape=mxgraph.azure.virtual_machine_feature;hachureGap=4;fontFamily=Architects Daughter;fontSource=https%3A%2F%2Ffonts.googleapis.com%2Fcss%3Ffamily%3DArchitects%2BDaughter;" vertex="1" parent="WIyWlLk6GJQsqaUBKTNV-1">
          <mxGeometry x="605" y="739.5" width="50" height="45" as="geometry" />
        </mxCell>
        <mxCell id="vHnyrmgprre1DJkYdZRr-5" value="" style="outlineConnect=0;fontColor=#232F3E;gradientColor=none;fillColor=#232F3D;strokeColor=none;dashed=0;verticalLabelPosition=bottom;verticalAlign=top;align=center;html=1;fontSize=12;fontStyle=0;aspect=fixed;pointerEvents=1;shape=mxgraph.aws4.git_repository;hachureGap=4;fontFamily=Architects Daughter;fontSource=https%3A%2F%2Ffonts.googleapis.com%2Fcss%3Ffamily%3DArchitects%2BDaughter;" vertex="1" parent="WIyWlLk6GJQsqaUBKTNV-1">
          <mxGeometry x="90" y="700.5" width="64.61" height="84" as="geometry" />
        </mxCell>
        <mxCell id="vHnyrmgprre1DJkYdZRr-10" value="" style="edgeStyle=orthogonalEdgeStyle;rounded=0;hachureGap=4;orthogonalLoop=1;jettySize=auto;html=1;fontFamily=Architects Daughter;fontSource=https%3A%2F%2Ffonts.googleapis.com%2Fcss%3Ffamily%3DArchitects%2BDaughter;" edge="1" parent="WIyWlLk6GJQsqaUBKTNV-1" source="vHnyrmgprre1DJkYdZRr-8" target="vHnyrmgprre1DJkYdZRr-0">
          <mxGeometry relative="1" as="geometry" />
        </mxCell>
        <mxCell id="vHnyrmgprre1DJkYdZRr-8" value="Domain Join.ps1" style="text;html=1;align=left;verticalAlign=middle;resizable=0;points=[];autosize=1;strokeColor=none;fillColor=none;fontFamily=Architects Daughter;fontSource=https%3A%2F%2Ffonts.googleapis.com%2Fcss%3Ffamily%3DArchitects%2BDaughter;" vertex="1" parent="WIyWlLk6GJQsqaUBKTNV-1">
          <mxGeometry x="160" y="727.5" width="100" height="30" as="geometry" />
        </mxCell>
        <mxCell id="vHnyrmgprre1DJkYdZRr-12" value="" style="edgeStyle=orthogonalEdgeStyle;rounded=0;hachureGap=4;orthogonalLoop=1;jettySize=auto;html=1;fontFamily=Architects Daughter;fontSource=https%3A%2F%2Ffonts.googleapis.com%2Fcss%3Ffamily%3DArchitects%2BDaughter;entryX=0;entryY=0.5;entryDx=0;entryDy=0;" edge="1" parent="WIyWlLk6GJQsqaUBKTNV-1" source="vHnyrmgprre1DJkYdZRr-9" target="vHnyrmgprre1DJkYdZRr-13">
          <mxGeometry relative="1" as="geometry">
            <mxPoint x="360" y="780" as="targetPoint" />
          </mxGeometry>
        </mxCell>
        <mxCell id="vHnyrmgprre1DJkYdZRr-9" value="&lt;span style=&quot;color: rgb(0, 0, 0); font-family: &amp;quot;Architects Daughter&amp;quot;; font-size: 12px; font-style: normal; font-variant-ligatures: normal; font-variant-caps: normal; font-weight: 400; letter-spacing: normal; orphans: 2; text-align: left; text-indent: 0px; text-transform: none; widows: 2; word-spacing: 0px; -webkit-text-stroke-width: 0px; white-space: nowrap; background-color: rgb(251, 251, 251); text-decoration-thickness: initial; text-decoration-style: initial; text-decoration-color: initial; float: none; display: inline !important;&quot;&gt;OU-GPUpdate.ps1&lt;/span&gt;" style="text;whiteSpace=wrap;html=1;fontFamily=Architects Daughter;fontSource=https%3A%2F%2Ffonts.googleapis.com%2Fcss%3Ffamily%3DArchitects%2BDaughter;" vertex="1" parent="WIyWlLk6GJQsqaUBKTNV-1">
          <mxGeometry x="160" y="765" width="110" height="30" as="geometry" />
        </mxCell>
        <mxCell id="vHnyrmgprre1DJkYdZRr-15" value="" style="edgeStyle=orthogonalEdgeStyle;rounded=0;hachureGap=4;orthogonalLoop=1;jettySize=auto;html=1;fontFamily=Architects Daughter;fontSource=https%3A%2F%2Ffonts.googleapis.com%2Fcss%3Ffamily%3DArchitects%2BDaughter;" edge="1" parent="WIyWlLk6GJQsqaUBKTNV-1" source="vHnyrmgprre1DJkYdZRr-13" target="vHnyrmgprre1DJkYdZRr-3">
          <mxGeometry relative="1" as="geometry" />
        </mxCell>
        <mxCell id="vHnyrmgprre1DJkYdZRr-13" value="Github Action" style="whiteSpace=wrap;html=1;fillColor=#fff2cc;strokeColor=#d6b656;rounded=1;" vertex="1" parent="WIyWlLk6GJQsqaUBKTNV-1">
          <mxGeometry x="420" y="765" width="120" height="30" as="geometry" />
        </mxCell>
        <mxCell id="vHnyrmgprre1DJkYdZRr-18" value="REPO" style="text;html=1;align=left;verticalAlign=middle;resizable=0;points=[];autosize=1;strokeColor=none;fillColor=none;fontFamily=Architects Daughter;fontSource=https%3A%2F%2Ffonts.googleapis.com%2Fcss%3Ffamily%3DArchitects%2BDaughter;" vertex="1" parent="WIyWlLk6GJQsqaUBKTNV-1">
          <mxGeometry x="130" y="697.5" width="50" height="30" as="geometry" />
        </mxCell>
        <mxCell id="vHnyrmgprre1DJkYdZRr-21" value="New Server" style="image;aspect=fixed;html=1;points=[];align=center;fontSize=12;image=img/lib/mscae/VM_Windows_Non_Azure.svg;hachureGap=4;fontFamily=Architects Daughter;fontSource=https%3A%2F%2Ffonts.googleapis.com%2Fcss%3Ffamily%3DArchitects%2BDaughter;labelPosition=center;verticalLabelPosition=top;verticalAlign=bottom;" vertex="1" parent="WIyWlLk6GJQsqaUBKTNV-1">
          <mxGeometry x="760" y="567" width="50" height="46" as="geometry" />
        </mxCell>
      </root>
    </mxGraphModel>
  </diagram>
</mxfile>
